<?xml version="1.0" standalone="no"?>
<!DOCTYPE svg PUBLIC "-//W3C//DTD SVG 20010904//EN" "http://www.w3.org/TR/2001/REC-SVG-20010904/DTD/svg10.dtd">
<!-- Created using Krita: http://krita.org -->
<svg xmlns="http://www.w3.org/2000/svg" 
    xmlns:xlink="http://www.w3.org/1999/xlink"
    xmlns:krita="http://krita.org/namespaces/svg/krita"
    xmlns:sodipodi="http://sodipodi.sourceforge.net/DTD/sodipodi-0.dtd"
    width="120pt"
    height="120pt"
    viewBox="0 0 120 120">
<defs/>
<rect id="shape0" transform="matrix(0.705457694831251 0.708752015768898 -0.708752067923112 0.705457642919457 60.125968712431 28.1577142832506)" fill="none" stroke="#ffcf68" stroke-width="1.2" stroke-linecap="square" stroke-linejoin="bevel" width="41.8332808327061" height="41.8332808327061"/><path id="shape1" transform="matrix(1.00000002649095 0 0 0.999999952904974 60.2473239929078 61.4335012088412)" fill="none" stroke="#ffcf68" stroke-width="1.2" stroke-linecap="square" stroke-linejoin="miter" stroke-miterlimit="2" d="M33.1993 0L0 33.1993"/><path id="shape2" transform="matrix(1.00000002649095 0 0 0.999999952904974 60.0973326901844 94.5427703009422)" fill="none" stroke="#ffcf68" stroke-width="1.2" stroke-linecap="square" stroke-linejoin="miter" stroke-miterlimit="2" d="M0 0L0 11.2392"/><path id="shape3" transform="matrix(1.00000002649095 0 0 0.999999952904974 26.5533751276111 20.5672002323974)" fill="none" stroke="#ffcf68" stroke-width="1.2" stroke-linecap="square" stroke-linejoin="miter" stroke-miterlimit="2" d="M0 33.6331L33.6331 0"/><path id="shape4" transform="matrix(1.00000002649095 0 0 0.999999952904974 60.0973326901844 7.84596982243765)" fill="none" stroke="#ffcf68" stroke-width="1.2" stroke-linecap="square" stroke-linejoin="miter" stroke-miterlimit="2" d="M0 12.4104L0 0"/><path id="shape5" transform="matrix(1.00000002649095 0 0 0.999999952904974 38.9867536620994 36.3791534947197)" fill="none" stroke="#ffcf68" stroke-width="1.2" stroke-linecap="square" stroke-linejoin="miter" stroke-miterlimit="2" d="M0 42.988L42.988 0"/><path id="shape6" transform="matrix(1.00000002649095 0 0 0.999999952904974 31.0892492341267 57.5999999388583)" fill="none" stroke="#ffcf68" stroke-width="1.2" stroke-linecap="square" stroke-linejoin="miter" stroke-miterlimit="2" d="M0 0L57.8215 0"/>
</svg>
